<svg height="512pt" viewBox="-61 0 512 512" width="512pt" xmlns="http://www.w3.org/2000/svg"><path d="m235.199219 317.199219-7.199219 97c-.601562 7.800781-7.199219 13.800781-15 13.800781h-36c-7.800781 0-14.402344-6-15-13.800781l-7.203125-97c-.898437-8.398438 5.402344-15.601563 13.804687-16.199219h52.796876c8.402343.597656 14.703124 7.800781 13.800781 16.199219zm0 0" fill="#c6e2e7"/><path d="m235.199219 194.800781c.902343 8.398438-5.398438 15.597657-13.800781 16.199219h-52.796876c-8.402343-.601562-14.703124-7.800781-13.800781-16.199219l7.199219-97c.597656-8.101562 7.800781-14.402343 16.199219-13.800781h33.601562c8.398438-.601562 15.601563 5.699219 16.199219 13.800781zm0 0" fill="#c6e2e7"/><path d="m165 452h-60c-8.289062 0-15-6.710938-15-15s6.710938-15 15-15h60c8.289062 0 15 6.710938 15 15s-6.710938 15-15 15zm0 0" fill="#5a5a5a"/><path d="m285 452h-60c-8.289062 0-15-6.710938-15-15s6.710938-15 15-15h60c8.289062 0 15 6.710938 15 15s-6.710938 15-15 15zm0 0" fill="#444"/><path d="m285 90h-60c-8.289062 0-15-6.710938-15-15s6.710938-15 15-15h60c8.289062 0 15 6.710938 15 15s-6.710938 15-15 15zm0 0" fill="#444"/><path d="m165 90h-60c-8.289062 0-15-6.710938-15-15s6.710938-15 15-15h60c8.289062 0 15 6.710938 15 15s-6.710938 15-15 15zm0 0" fill="#5a5a5a"/><path d="m75 362h-30c-24.902344 0-45 20.097656-45 45v60c0 24.898438 20.097656 45 45 45h30c24.902344 0 45-20.101562 45-45v-60c0-24.902344-20.097656-45-45-45zm0 0" fill="#5a5a5a"/><path d="m120 407v60c0 24.898438-20.097656 45-45 45h-15v-150h15c24.902344 0 45 20.097656 45 45zm0 0" fill="#444"/><path d="m75 0h-30c-24.902344 0-45 20.097656-45 45v60c0 24.898438 20.097656 45 45 45h30c24.902344 0 45-20.101562 45-45v-60c0-24.902344-20.097656-45-45-45zm0 0" fill="#5a5a5a"/><path d="m120 45v60c0 24.898438-20.097656 45-45 45h-15v-150h15c24.902344 0 45 20.097656 45 45zm0 0" fill="#444"/><path d="m345 362h-30c-24.902344 0-45 20.097656-45 45v60c0 24.898438 20.097656 45 45 45h30c24.902344 0 45-20.101562 45-45v-60c0-24.902344-20.097656-45-45-45zm0 0" fill="#5a5a5a"/><path d="m390 407v60c0 24.898438-20.097656 45-45 45h-15v-150h15c24.902344 0 45 20.097656 45 45zm0 0" fill="#444"/><path d="m345 0h-30c-24.902344 0-45 20.097656-45 45v60c0 24.898438 20.097656 45 45 45h30c24.902344 0 45-20.101562 45-45v-60c0-24.902344-20.097656-45-45-45zm0 0" fill="#5a5a5a"/><path d="m390 45v60c0 24.898438-20.097656 45-45 45h-15v-150h15c24.902344 0 45 20.097656 45 45zm0 0" fill="#444"/><path d="m195 211v-127h16.800781c8.398438-.601562 15.601563 5.699219 16.199219 13.800781l7.199219 97c.902343 8.398438-5.398438 15.597657-13.800781 16.199219zm0 0" fill="#8ebac5"/><path d="m235.199219 317.199219-7.199219 97c-.601562 7.800781-7.199219 13.800781-15 13.800781h-18v-127h26.398438c8.402343.597656 14.703124 7.800781 13.800781 16.199219zm0 0" fill="#8ebac5"/><path d="m225 181h-60c-24.902344 0-45 20.097656-45 45v60c0 24.898438 20.097656 45 45 45h60c24.902344 0 45-20.101562 45-45v-60c0-24.902344-20.097656-45-45-45zm0 0" fill="#deecf1"/><path d="m270 226v60c0 24.898438-20.097656 45-45 45h-30v-150h30c24.902344 0 45 20.097656 45 45zm0 0" fill="#a8d3d8"/><path d="m195 30c-24.902344 0-45 20.097656-45 45 0 24.898438 20.097656 45 45 45s45-20.101562 45-45c0-24.902344-20.097656-45-45-45zm0 0" fill="#deecf1"/><path d="m195 120v-90c24.902344 0 45 20.097656 45 45 0 24.898438-20.097656 45-45 45zm0 0" fill="#a8d3d8"/><path d="m195 392c-24.902344 0-45 20.097656-45 45 0 24.898438 20.097656 45 45 45s45-20.101562 45-45c0-24.902344-20.097656-45-45-45zm0 0" fill="#deecf1"/><path d="m240 437c0 24.898438-20.097656 45-45 45v-90c24.902344 0 45 20.097656 45 45zm0 0" fill="#a8d3d8"/></svg>