<svg height="512pt" viewBox="0 -31 512 512" width="512pt" xmlns="http://www.w3.org/2000/svg"><path d="m30 90h452v330h-452zm0 0" fill="#e63950"/><path d="m256 90h226v330h-226zm0 0" fill="#cc2e43"/><path d="m165 240h-60c-8.289062 0-15-6.710938-15-15s6.710938-15 15-15h60c8.289062 0 15 6.710938 15 15s-6.710938 15-15 15zm0 0" fill="#deecf1"/><path d="m407 210h-15v-15c0-8.289062-6.710938-15-15-15s-15 6.710938-15 15v15h-15c-8.289062 0-15 6.710938-15 15s6.710938 15 15 15h15v15c0 8.289062 6.710938 15 15 15s15-6.710938 15-15v-15h15c8.289062 0 15-6.710938 15-15s-6.710938-15-15-15zm0 0" fill="#c6e2e7"/><path d="m299.800781 249.300781c2.398438 5.699219 1.199219 12-3.300781 16.199219l-60 60c-2.699219 3-6.601562 4.5-10.5 4.5s-7.800781-1.5-10.5-4.5c-6-5.699219-6-15.300781 0-21l34.199219-34.5h-23.699219c-6 0-11.398438-3.601562-13.800781-9.300781-2.398438-5.699219-1.199219-12 3.300781-16.199219l60-60c5.699219-6 15.296875-6 21 0 6 5.699219 6 15.300781 0 21l-34.199219 34.5h23.699219c6 0 11.398438 3.601562 13.800781 9.300781zm0 0" fill="#ffd400"/><path d="m165 90h-90c-8.289062 0-15-6.710938-15-15v-60c0-8.289062 6.710938-15 15-15h90c8.289062 0 15 6.710938 15 15v60c0 8.289062-6.710938 15-15 15zm0 0" fill="#a8d3d8"/><path d="m437 90h-90c-8.289062 0-15-6.710938-15-15v-60c0-8.289062 6.710938-15 15-15h90c8.289062 0 15 6.710938 15 15v60c0 8.289062-6.710938 15-15 15zm0 0" fill="#8ebac5"/><path d="m296.5 265.5-40.5 40.5v-102l19.5-19.5c5.699219-6 15.300781-6 21 0 6 5.699219 6 15.300781 0 21l-34.199219 34.5h23.699219c6 0 11.398438 3.601562 13.800781 9.300781 2.398438 5.699219 1.199219 12-3.300781 16.199219zm0 0" fill="#fdbf00"/><path d="m512 90c0 16.5-13.5 30-30 30h-452c-16.5 0-30-13.5-30-30s13.5-30 30-30h452c16.5 0 30 13.5 30 30zm0 0" fill="#5a5a5a"/><path d="m482 120h-226v-60h226c16.5 0 30 13.5 30 30s-13.5 30-30 30zm0 0" fill="#444"/><path d="m512 420v15c0 8.398438-6.597656 15-15 15h-482c-8.402344 0-15-6.601562-15-15v-15c0-16.5 13.5-30 30-30h452c16.5 0 30 13.5 30 30zm0 0" fill="#5a5a5a"/><path d="m512 420v15c0 8.398438-6.597656 15-15 15h-241v-60h226c16.5 0 30 13.5 30 30zm0 0" fill="#444"/></svg>