<svg height="512pt" viewBox="0 0 512 512.00025" width="512pt" xmlns="http://www.w3.org/2000/svg"><path d="m271 31c-132.597656 0-240 107.398438-240 240 0 132.597656 107.402344 241 240 241s241-108.402344 241-241c0-132.601562-108.402344-240-241-240zm0 360c-66.300781 0-120-53.699219-120-120s53.699219-120 120-120 120 53.699219 120 120-53.699219 120-120 120zm0 0" fill="#a8d3d8"/><path d="m512 271c0 132.597656-108.402344 241-241 241v-121c66.300781 0 120-53.699219 120-120s-53.699219-120-120-120v-120c132.597656 0 241 107.398438 241 240zm0 0" fill="#8ebac5"/><path d="m459.402344 178.300781-18.003906-30c-25.199219-34.800781-60.898438-61.800781-102.597657-75.902343-4.800781-1.796876-9.601562 27-14.699219 25.5-6.300781-1.5-12.902343-33-19.203124-33.898438-11.097657-1.800781-22.5-3-33.898438-3-33.300781 0-64.5 7.800781-92.402344 21.597656-6.296875 3.003906 17.703125 21.300782 12.003906 24.902344-4.203124 2.703125-38.101562-9.601562-42.003906-6.898438-35.097656 25.199219-62.097656 60.898438-76.199218 102.597657-1.5 4.800781 27.003906 9.601562 25.5 14.398437-1.5 6.601563-33 13.203125-33.898438 19.800782-1.800781 11.101562-3 22.203124-3 33.601562 0 33.300781 7.800781 64.5 21.597656 92.699219 3.300782 6.601562 22.203125-1.800781 26.101563 4.5 2.101562 3.601562-10.5 22.199219-8.097657 25.5 25.199219 34.800781 60.898438 61.800781 102.597657 75.902343 4.5 1.5 9.300781-27.003906 13.800781-25.800781 6.597656 1.800781 13.5 33 20.097656 34.199219 11.101563 1.800781 22.5 3 33.902344 3 33.300781 0 64.5-7.800781 92.699219-21.601562 4.5-2.398438-21.300781-34.796876-16.800781-37.199219 5.699218-3.300781 41.398437 23.101562 46.800781 19.199219 35.101562-25.5 61.800781-61.199219 75.898437-102.898438 1.199219-3.300781-27.597656-6.902344-26.699218-10.5 2.101562-7.5 33.902343-15.300781 35.101562-23.101562 1.800781-11.097657 3-22.5 3-33.898438 0-33.300781-7.800781-64.5-21.597656-92.699219zm-188.402344 182.699219c-49.800781 0-90-40.199219-90-90s40.199219-90 90-90 90 40.199219 90 90-40.199219 90-90 90zm0 0" fill="#deecf1"/><path d="m481 271c0 11.398438-1.199219 22.800781-3 33.898438-1.199219 7.800781-33 15.601562-35.101562 23.101562-.898438 3.597656 27.902343 7.203125 26.703124 10.5-14.101562 41.699219-40.800781 77.398438-75.902343 102.898438-5.398438 3.902343-41.101563-22.5-46.796875-19.199219-4.503906 2.402343 21.296875 34.800781 16.796875 37.199219-28.199219 13.800781-59.398438 21.601562-92.699219 21.601562v-120c49.800781 0 90-40.199219 90-90s-40.199219-90-90-90v-120c11.398438 0 22.800781 1.199219 33.898438 3 6.300781.898438 12.902343 32.398438 19.203124 33.898438 5.097657 1.5 9.898438-27.296876 14.699219-25.5 41.699219 14.101562 77.398438 41.101562 102.597657 75.902343l18 30c13.800781 28.199219 21.601562 59.398438 21.601562 92.699219zm0 0" fill="#c6e2e7"/><path d="m350.980469 358.320312c2.136719-8-2.605469-16.230468-10.605469-18.371093-7.925781-2.109375-16.230469 2.609375-18.367188 10.605469-6.902343 25.765624-3.355468 52.675781 9.972657 75.761718 7.863281 13.625 18.824219 24.59375 31.578125 33.015625 10.558594-5.191406 20.609375-11.203125 30.070312-18.027343-32.96875-12.617188-51.972656-48.152344-42.648437-82.984376zm0 0" fill="#8ebac5"/><path d="m191.019531 183.679688c-2.152343 8 2.609375 16.230468 10.605469 18.371093 1.304688.351563 2.605469.511719 3.894531.511719 6.621094 0 12.671875-4.410156 14.472657-11.117188 11.179687-41.695312-6.222657-85.453124-41.457032-108.820312-10.5625 5.1875-20.613281 11.1875-30.082031 18.007812 2.109375.804688 4.257813 1.445313 6.3125 2.46875 29.574219 14.71875 44.824219 48.601563 36.253906 80.578126zm0 0" fill="#a8d3d8"/><path d="m431.707031 308.734375c-18.015625-4.835937-33.089843-16.390625-42.40625-32.550781-4.175781-7.175782-13.359375-9.652344-20.492187-5.492188-7.179688 4.148438-9.640625 13.316406-5.492188 20.492188 13.328125 23.101562 34.863282 39.625 60.628906 46.523437 8.597657 2.316407 17.328126 3.441407 26 3.441407 6.683594 0 13.246094-1.265626 19.777344-2.609376 3.691406-10.882812 6.449219-22.164062 8.324219-33.769531-14.585937 6.5-30.726563 8.132813-46.339844 3.964844zm0 0" fill="#8ebac5"/><path d="m101.371094 231.492188c21.695312 2.886718 40.398437 15.398437 51.328125 34.320312 2.78125 4.820312 7.820312 7.5 13.007812 7.5 2.550781 0 5.128907-.644531 7.484375-2.003906 7.179688-4.148438 9.640625-13.316406 5.492188-20.496094-15.613282-27.054688-42.347656-44.925781-73.34375-49.054688-11.140625-1.515624-22.222656-.851562-32.957032 1.410157-3.757812 11.023437-6.5625 22.457031-8.457031 34.226562 11.742188-5.242187 24.511719-7.609375 37.445313-5.902343zm0 0" fill="#a8d3d8"/><path d="m358.320312 191.019531c-7.984374-2.125-16.230468 2.609375-18.371093 10.605469-2.136719 8 2.609375 16.230469 10.605469 18.371094 8.597656 2.296875 17.328124 3.441406 26 3.441406 17.300781 0 34.382812-4.542969 49.761718-13.417969 13.621094-7.863281 24.59375-18.824219 33.015625-31.574219-5.191406-10.558593-11.199219-20.605468-18.023437-30.070312-12.601563 32.953125-48.089844 51.957031-82.988282 42.644531zm0 0" fill="#8ebac5"/><path d="m183.679688 350.980469c8 2.242187 16.246093-2.578125 18.371093-10.605469 2.136719-7.996094-2.609375-16.230469-10.605469-18.367188-25.765624-6.902343-52.675781-3.355468-75.761718 9.972657-13.625 7.863281-24.59375 18.824219-33.015625 31.578125 5.191406 10.558594 11.199219 20.605468 18.023437 30.070312 12.605469-32.953125 48.117188-51.972656 82.988282-42.648437zm0 0" fill="#a8d3d8"/><path d="m308.734375 110.292969c-4.835937 18.015625-16.390625 33.074219-32.550781 42.40625-7.175782 4.144531-9.636719 13.316406-5.492188 20.492187 2.785156 4.804688 7.824219 7.5 13.007813 7.5 2.550781 0 5.128906-.644531 7.484375-2.007812 23.101562-13.328125 39.625-34.863282 46.523437-60.628906 4.074219-15.207032 4.074219-30.730469 1.003907-45.714844-10.933594-3.722656-22.269532-6.5-33.933594-8.386719 6.511718 14.574219 8.148437 30.714844 3.957031 46.339844zm0 0" fill="#8ebac5"/><path d="m233.265625 431.707031c4.835937-18.015625 16.390625-33.089843 32.550781-42.40625 7.175782-4.144531 9.636719-13.316406 5.492188-20.492187-4.160156-7.179688-13.375-9.640625-20.492188-5.492188-23.101562 13.328125-39.625 34.863282-46.523437 60.628906-4.074219 15.207032-4.074219 30.730469-1.003907 45.714844 10.933594 3.722656 22.269532 6.5 33.933594 8.386719-6.511718-14.574219-8.148437-30.714844-3.957031-46.339844zm0 0" fill="#a8d3d8"/><path d="m271 151c-66.300781 0-120 53.699219-120 120s53.699219 120 120 120 120-53.699219 120-120-53.699219-120-120-120zm0 195c-41.398438 0-75-33.601562-75-75s33.601562-75 75-75 75 33.601562 75 75-33.601562 75-75 75zm0 0" fill="#a8d3d8"/><path d="m391 271c0 66.300781-53.699219 120-120 120v-45c41.398438 0 75-33.601562 75-75s-33.601562-75-75-75v-45c66.300781 0 120 53.699219 120 120zm0 0" fill="#8ebac5"/><path d="m271 181c-49.800781 0-90 40.199219-90 90s40.199219 90 90 90 90-40.199219 90-90-40.199219-90-90-90zm0 150c-33 0-60-27-60-60s27-60 60-60 60 27 60 60-27 60-60 60zm0 0" fill="#deecf1"/><path d="m361 271c0 49.800781-40.199219 90-90 90v-30c33 0 60-27 60-60s-27-60-60-60v-30c49.800781 0 90 40.199219 90 90zm0 0" fill="#c6e2e7"/><path d="m106 271h-91c-8.289062 0-15-6.707031-15-15 0-37.367188 8.894531-73.375 24.480469-107.019531 2.476562-5.347657.921875-12.363281-3.777344-17.066407l-16.308594-15.308593c-5.859375-5.859375-5.859375-15.351563 0-21.210938l91-91c5.859375-5.859375 15.351563-5.859375 21.210938 0l15.308593 15.308594c4.71875 4.714844 11.734376 7.269531 17.050782 4.777344 33.660156-15.585938 69.667968-24.480469 107.035156-24.480469 8.292969 0 15 6.710938 15 15v91c0 8.292969-6.707031 15-15 15-74.441406 0-135 60.558594-135 135 0 8.292969-6.707031 15-15 15zm0 0" fill="#e63950"/></svg>