<svg height="512pt" viewBox="-16 0 512 512" width="512pt" xmlns="http://www.w3.org/2000/svg"><path d="m330 0h-180c-27.300781 0-53.101562 7.199219-75 20.097656-45 26.101563-75 74.402344-75 129.902344v45l30 30-30 30v106c0 55.5 30 103.800781 75 129.898438 21.898438 12.902343 47.699219 21.101562 75 21.101562h30c82.800781 0 150-68.199219 150-151v-61c82.800781 0 150-67.199219 150-150s-67.199219-150-150-150zm-150 300v61h-30v-106l-30-30 30-30v-45h180c-82.800781 0-150 67.199219-150 150zm0 0" fill="#c6e2e7"/><path d="m330 0h-180c-27.300781 0-53.101562 7.199219-75 20.097656v470.800782c21.898438 12.902343 47.699219 21.101562 75 21.101562h30c82.800781 0 150-68.199219 150-151v-61c82.800781 0 150-67.199219 150-150s-67.199219-150-150-150zm-150 300v61h-30v-106l-30-30 30-30v-45h180c-82.800781 0-150 67.199219-150 150zm0 0" fill="#a8d3d8"/><path d="m330 30h-180c-28.199219 0-54.300781 9.902344-75 26.398438-27.597656 21.902343-45 55.800781-45 93.601562v211c0 37.800781 17.402344 71.699219 45 93.601562 20.699219 16.5 46.800781 26.398438 75 26.398438h30c66.300781 0 120-53.699219 120-120v-61c0-16.5 13.5-30 30-30 66.300781 0 120-53.699219 120-120s-53.699219-120-120-120zm0 150c-66.300781 0-120 53.699219-120 120v61c0 16.5-13.5 30-30 30h-30c-16.5 0-30-13.5-30-30v-211c0-16.5 13.5-30 30-30h180c16.5 0 30 13.5 30 30s-13.5 30-30 30zm0 0" fill="#6e6e6e"/><path d="m330 30h-180c-28.199219 0-54.300781 9.902344-75 26.398438v398.203124c20.699219 16.5 46.800781 26.398438 75 26.398438h30c66.300781 0 120-53.699219 120-120v-61c0-16.5 13.5-30 30-30 66.300781 0 120-53.699219 120-120s-53.699219-120-120-120zm0 150c-66.300781 0-120 53.699219-120 120v61c0 16.5-13.5 30-30 30h-30c-16.5 0-30-13.5-30-30v-211c0-16.5 13.5-30 30-30h180c16.5 0 30 13.5 30 30s-13.5 30-30 30zm0 0" fill="#5a5a5a"/><path d="m180 451h-5.917969c-8.292969 0-15-6.710938-15-15s6.707031-15 15-15h5.917969c6.167969 0 12.230469-.9375 18.03125-2.769531 7.984375-2.535157 16.347656 1.859375 18.824219 9.773437 2.503906 7.894532-1.875 16.316406-9.769531 18.820313-8.730469 2.769531-17.84375 4.175781-27.085938 4.175781zm0 0" fill="#a8d3d8"/><path d="m117.511719 443.589844c-2.183594 0-4.398438-.484375-6.503907-1.496094-10.445312-5.039062-19.71875-11.953125-27.554687-20.566406-5.566406-6.136719-5.113281-15.613282 1.011719-21.195313 6.136718-5.535156 15.613281-5.097656 21.195312 1.011719 5.226563 5.757812 11.410156 10.371094 18.382813 13.738281 7.457031 3.589844 10.589843 12.570313 6.988281 20.023438-2.578125 5.363281-7.941406 8.484375-13.519531 8.484375zm0 0" fill="#a8d3d8"/><path d="m245.933594 411.714844c-2.417969 0-4.878906-.585938-7.148438-1.832032-7.28125-3.957031-9.976562-13.066406-6.007812-20.332031 3.691406-6.796875 6.007812-14.136719 6.855468-21.828125.9375-8.214844 8.292969-14.019531 16.582032-13.242187 8.234375.925781 14.167968 8.351562 13.242187 16.582031-1.304687 11.558594-4.773437 22.605469-10.339843 32.816406-2.710938 5.007813-7.867188 7.835938-13.183594 7.835938zm0 0" fill="#a8d3d8"/><path d="m90 328.800781v29.800781c0 8.398438-6.597656 15-15 15s-15-6.601562-15-15v-29.800781c0-8.101562 6.597656-15 15-15s15 6.898438 15 15zm0 0" fill="#c6e2e7"/><path d="m255 325.753906c-8.289062 0-15-6.710937-15-15v-10.753906c0-7.25.863281-14.472656 2.578125-21.476562 1.976563-8.039063 10.105469-12.992188 18.148437-11 8.042969 1.980468 12.964844 10.09375 11 18.148437-1.140624 4.660156-1.726562 9.480469-1.726562 14.328125v10.753906c0 8.289063-6.710938 15-15 15zm0 0" fill="#a8d3d8"/><path d="m290.128906 251.515625c-4.96875 0-9.847656-2.476563-12.6875-6.988281-4.4375-7.003906-2.34375-16.261719 4.65625-20.683594 9.84375-6.242188 20.640625-10.429688 32.109375-12.453125 8.363281-1.40625 15.9375 4 17.390625 12.144531 1.449219 8.160156-3.984375 15.953125-12.144531 17.390625-7.617187 1.347657-14.78125 4.128907-21.332031 8.261719-2.472656 1.578125-5.253906 2.328125-7.992188 2.328125zm0 0" fill="#a8d3d8"/><path d="m371.851562 227.210938c-4.820312 0-9.550781-2.3125-12.453124-6.605469-4.628907-6.871094-2.824219-16.1875 4.042968-20.828125 6.433594-4.335938 11.910156-9.800782 16.277344-16.230469 4.65625-6.828125 14.003906-8.628906 20.828125-3.984375 6.855469 4.644531 8.644531 13.972656 3.984375 20.828125-6.503906 9.597656-14.679688 17.753906-24.300781 24.257813-2.578125 1.730468-5.496094 2.5625-8.378907 2.5625zm0 0" fill="#a8d3d8"/><path d="m403.855469 151.976562c-7.144531 0-13.476563-5.125-14.765625-12.40625-1.332032-7.601562-4.101563-14.78125-8.21875-21.355468-4.40625-7.019532-2.28125-16.273438 4.734375-20.667969 7-4.441406 16.242187-2.300781 20.667969 4.730469 6.195312 9.855468 10.355468 20.667968 12.378906 32.109375 1.417968 8.15625-4.03125 15.9375-12.1875 17.371093-.878906.144532-1.742188.21875-2.609375.21875zm0 0" fill="#a8d3d8"/><path d="m106.199219 108.898438c-5.097657 5.703124-9.300781 12.300781-12 19.5-2.398438 6-8.101563 9.601562-14.101563 9.601562-1.796875 0-3.296875-.300781-5.097656-1.199219h-.300781c-7.800781-3-11.699219-11.699219-8.699219-19.199219 2.402344-6 5.402344-12 9-17.402343 2.703125-4.199219 6-8.097657 9.300781-11.699219 5.699219-6 15.300781-6.601562 21.300781-.898438 5.996094 5.699219 6.296876 15.296876.597657 21.296876zm0 0" fill="#c6e2e7"/><g fill="#a8d3d8"><path d="m90 328.800781v29.800781c0 8.398438-6.597656 15-15 15v-59.800781c8.402344 0 15 6.898438 15 15zm0 0"/><path d="m106.199219 108.898438c-5.097657 5.703124-9.300781 12.300781-12 19.5-2.398438 6-8.101563 9.601562-14.101563 9.601562-1.796875 0-3.296875-.300781-5.097656-1.199219v-36.601562c2.699219-4.199219 6-8.097657 9.300781-11.699219 5.699219-6 15.300781-6.601562 21.300781-.898438 5.996094 5.699219 6.296876 15.296876.597657 21.296876zm0 0"/><path d="m348.0625 92.195312c-1.203125 0-2.417969-.144531-3.632812-.4375-4.6875-1.171874-9.535157-1.757812-14.429688-1.757812h-10.589844c-8.292968 0-15-6.710938-15-15s6.707032-15 15-15h10.589844c7.339844 0 14.617188.894531 21.664062 2.636719 8.042969 2.007812 12.9375 10.136719 10.941407 18.179687-1.699219 6.824219-7.820313 11.378906-14.542969 11.378906zm0 0"/><path d="m149.238281 90.015625c-8.027343 0-15.980469-6.195313-16.390625-14.226563-.398437-8.273437 4.554688-15.277343 12.816406-15.6875l29.574219-.101562c8.292969 0 15 6.710938 15 15s-6.707031 15-15 15h-25.238281c-.25.015625-.511719.015625-.761719.015625zm0 0"/><path d="m261.738281 90h-28.828125c-8.292968 0-15-6.710938-15-15s6.707032-15 15-15h28.828125c8.289063 0 15 6.710938 15 15s-6.710937 15-15 15zm0 0"/></g><path d="m90 180v90c0 8.398438-6.597656 15-15 15s-15-6.601562-15-15v-90c0-8.402344 6.597656-15 15-15s15 6.597656 15 15zm0 0" fill="#c6e2e7"/><path d="m90 180v90c0 8.398438-6.597656 15-15 15v-120c8.402344 0 15 6.597656 15 15zm0 0" fill="#a8d3d8"/><path d="m0 195h150v60h-150zm0 0" fill="#e63950"/><path d="m75 195h75v60h-75zm0 0" fill="#cc2e43"/></svg>