<svg height="512pt" viewBox="0 -136 512 512" width="512pt" xmlns="http://www.w3.org/2000/svg"><path d="m512 135v15l-30 30h-416.300781l-32.097657-30c36.300782-89.402344 124.296876-150 222.398438-150 8.402344 0 15 6.597656 15 15v45h26.699219c73.800781 0 146.199219 21.597656 207.699219 62.398438 4.199218 3 6.601562 7.5 6.601562 12.601562zm0 0" fill="#ec5569"/><path d="m512 135v15l-30 30h-211v-120h26.699219c73.800781 0 146.199219 21.597656 207.699219 62.398438 4.199218 3 6.601562 7.5 6.601562 12.601562zm0 0" fill="#e63950"/><path d="m512 150v45c0 8.398438-6.597656 15-15 15h-437v-60zm0 0" fill="#e63950"/><path d="m512 150v45c0 8.398438-6.597656 15-15 15h-226v-60zm0 0" fill="#cc2e43"/><path d="m60 180h-45c-8.285156 0-15-6.714844-15-15v-150c0-8.285156 6.714844-15 15-15h15c16.570312 0 30 13.429688 30 30zm0 0" fill="#e63950"/><path d="m90 120c-33 0-60 27-60 60s27 60 60 60 60-27 60-60-27-60-60-60zm0 0" fill="#5a5a5a"/><path d="m90 150c-16.5 0-30 13.5-30 30s13.5 30 30 30 30-13.5 30-30-13.5-30-30-30zm0 0" fill="#deecf1"/><path d="m391 120c-33 0-60 27-60 60s27 60 60 60 60-27 60-60-27-60-60-60zm0 0" fill="#444"/><path d="m391 150c-16.5 0-30 13.5-30 30s13.5 30 30 30 30-13.5 30-30-13.5-30-30-30zm0 0" fill="#c6e2e7"/></svg>