<svg height="512pt" viewBox="-121 0 512 512" width="512pt" xmlns="http://www.w3.org/2000/svg">
<path d="m240 120-30 15 30 15v60h-210v-60l30-15-30-15v-60h210zm0 0" fill="#c6e2e7"/>
<path d="m240 120-30 15 30 15v60h-105v-150h105zm0 0" fill="#8ebac5"/>
<path d="m90 240h90v182h-90zm0 0" fill="#c6e2e7"/>
<path d="m135 240h45v182h-45zm0 0" fill="#8ebac5"/>
<path d="m30 120h210v30h-210zm0 0" fill="#deecf1"/>
<path d="m75 452h-30c-8.289062 0-15-6.710938-15-15s6.710938-15 15-15h30c8.289062 0 15 6.710938 15 15s-6.710938 15-15 15zm0 0" fill="#deecf1"/>
<path d="m225 452h-30c-8.289062 0-15-6.710938-15-15s6.710938-15 15-15h30c8.289062 0 15 6.710938 15 15s-6.710938 15-15 15zm0 0" fill="#a8d3d8"/>
<path d="m225 0h-180c-24.902344 0-45 20.097656-45 45v30c0 8.398438 6.597656 15 15 15h240c8.402344 0 15-6.601562 15-15v-30c0-24.902344-20.097656-45-45-45zm0 0" fill="#deecf1"/>
<path d="m45 482c-8.289062 0-15-6.710938-15-15v-60c0-8.289062 6.710938-15 15-15s15 6.710938 15 15v60c0 8.289062-6.710938 15-15 15zm0 0" fill="#deecf1"/>
<g fill="#a8d3d8">
<path d="m225 482c-8.289062 0-15-6.710938-15-15v-60c0-8.289062 6.710938-15 15-15s15 6.710938 15 15v60c0 8.289062-6.710938 15-15 15zm0 0"/>
<path d="m135 120h105v30h-105zm0 0"/>
<path d="m270 45v30c0 8.398438-6.597656 15-15 15h-120v-90h90c24.902344 0 45 20.097656 45 45zm0 0"/>
</g>
<path d="m255 180h-240c-8.402344 0-15 6.597656-15 15v90c0 8.398438 6.597656 15 15 15h30c3.898438 0 7.800781-1.5 10.5-4.5 16.5-16.199219 39-25.5 61.800781-25.5h35.398438c22.800781 0 45.300781 9.300781 61.800781 25.5 2.699219 3 6.601562 4.5 10.5 4.5h30c8.402344 0 15-6.601562 15-15v-90c0-8.402344-6.597656-15-15-15zm0 0" fill="#deecf1"/>
<path d="m270 195v90c0 8.398438-6.597656 15-15 15h-30c-3.898438 0-7.800781-1.5-10.5-4.5-16.5-16.199219-39-25.5-61.800781-25.5h-17.699219v-90h120c8.402344 0 15 6.597656 15 15zm0 0" fill="#a8d3d8"/>
<path d="m135 362c-41.398438 0-75 33.601562-75 75s33.601562 75 75 75 75-33.601562 75-75-33.601562-75-75-75zm0 105c-16.5 0-30-13.5-30-30s13.5-30 30-30 30 13.5 30 30-13.5 30-30 30zm0 0" fill="#deecf1"/>
<path d="m210 437c0 41.398438-33.601562 75-75 75v-45c16.5 0 30-13.5 30-30s-13.5-30-30-30v-45c41.398438 0 75 33.601562 75 75zm0 0" fill="#a8d3d8"/>
<path d="m135 392c-24.902344 0-45 20.097656-45 45 0 24.898438 20.097656 45 45 45s45-20.101562 45-45c0-24.902344-20.097656-45-45-45zm0 60c-8.402344 0-15-6.601562-15-15 0-8.402344 6.597656-15 15-15s15 6.597656 15 15c0 8.398438-6.597656 15-15 15zm0 0" fill="#c6e2e7"/>
<path d="m180 437c0 24.898438-20.097656 45-45 45v-30c8.402344 0 15-6.601562 15-15 0-8.402344-6.597656-15-15-15v-30c24.902344 0 45 20.097656 45 45zm0 0" fill="#8ebac5"/>
</svg>