<svg height="512pt" viewBox="-1 0 512 512.00017" width="512pt" xmlns="http://www.w3.org/2000/svg">
<path d="m510.820312 497.035156c0 8.378906-6.585937 14.964844-14.96875 14.964844h-45.890624l-29.933594-29.929688-29.929688 29.929688h-269.375l-29.933594-29.929688-29.929687 29.929688h-45.894531c-8.382813 0-14.964844-6.585938-14.964844-14.964844 0-58.964844 48.886719-104.757812 105.753906-104.757812 28.136719 0 50.285156 3.890625 66.445313-18.855469.601562-.898437 1.5-1.496094 2.097656-2.097656h162.226563c.597656.601562 1.496093 1.199219 2.09375 2.097656 16.160156 22.746094 38.308593 18.855469 66.445312 18.855469 56.871094 0 105.757812 45.792968 105.757812 104.757812zm0 0" fill="#5a5a5a"/>
<path d="m510.820312 497.035156c0 8.378906-6.585937 14.964844-14.96875 14.964844h-45.890624l-29.933594-29.929688-29.929688 29.929688h-134.6875v-140.675781h81.113282c.597656.601562 1.496093 1.199219 2.09375 2.097656 16.164062 22.746094 38.3125 18.855469 66.445312 18.855469 56.871094 0 105.757812 45.792968 105.757812 104.757812zm0 0" fill="#292929"/>
<path d="m396.382812 308.769531c-3.890624 8.980469-7.78125 17.960938-12.269531 26.339844-25.140625 44.894531-59.5625 73.628906-98.773437 83.207031h-59.859375c-39.210938-9.578125-73.632813-38.3125-98.773438-83.207031-4.492187-8.378906-8.382812-17.0625-11.972656-26.039063h140.675781zm0 0" fill="#ec5569"/>
<path d="m255.410156 309.070312 140.972656-.300781c-3.890624 8.980469-7.78125 17.960938-12.269531 26.339844-25.140625 44.894531-59.5625 73.628906-98.773437 83.207031h-29.929688zm0 0" fill="#cc2e43"/>
<path d="m414.042969 136.070312-45.496094 29.929688h-235.554687l-36.214844-29.929688c5.085937-24.542968 13.167968-47.589843 25.140625-67.046874 29.03125-46.394532 75.125-71.734376 133.492187-68.742188 58.066406-3.292969 104.457032 22.347656 133.492188 68.742188 11.972656 19.457031 20.050781 42.503906 25.140625 67.046874zm0 0" fill="#ec5569"/>
<path d="m368.546875 166h-113.136719v-165.71875c58.066406-3.292969 104.457032 22.347656 133.492188 68.742188 11.972656 19.457031 20.050781 42.5 25.140625 67.046874zm0 0" fill="#cc2e43"/>
<path d="m414.042969 136.070312c-35.019531 13.167969-115.832031 16.761719-158.632813 16.761719-41.605468 0-123.613281-3.59375-158.632812-16.761719-12.273438 59.5625-3.292969 123.015626 17.957031 173 38.609375 17.058594 99.070313 23.34375 140.675781 23.34375 43.097656 0 101.765625-6.285156 140.972656-23.644531 23.046876-55.371093 29.035157-116.132812 17.660157-172.699219zm0 0" fill="#6e6e6e"/>
<path d="m396.382812 308.769531c-39.207031 17.359375-97.871093 23.644531-140.972656 23.644531v-179.582031c42.800782 0 123.613282-3.59375 158.632813-16.761719 11.375 56.566407 5.386719 117.328126-17.660157 172.699219zm0 0" fill="#444"/>
<path d="m300.304688 107.933594c0 8.378906-6.582032 14.964844-14.964844 14.964844h-59.859375c-8.382813 0-14.96875-6.585938-14.96875-14.964844s6.585937-14.964844 14.96875-14.964844h59.859375c8.382812 0 14.964844 6.585938 14.964844 14.964844zm0 0" fill="#6e6e6e"/>
<path d="m120.722656 512h-59.863281v-119.722656c0-16.53125 13.398437-29.929688 29.929687-29.929688s29.933594 13.398438 29.933594 29.929688zm0 0" fill="#cc2e43"/>
<path d="m449.960938 512h-59.863282v-119.722656c0-16.53125 13.398438-29.929688 29.929688-29.929688s29.933594 13.398438 29.933594 29.929688zm0 0" fill="#ae2538"/>
<path d="m285.339844 122.898438h-29.929688v-29.929688h29.929688c8.382812 0 14.964844 6.585938 14.964844 14.964844s-6.582032 14.964844-14.964844 14.964844zm0 0" fill="#444"/>
<path d="m373.039062 285.722656c-24.542968 8.679688-58.066406 13.769532-90.691406 15.863282-8.980468.597656 11.671875-29.03125 2.992188-29.03125-1.796875 0-19.15625 15.265624-29.929688 23.945312-4.191406 3.289062-7.484375 5.683594-8.382812 5.683594-18.257813-.296875-36.214844-1.496094-52.675782-3.589844-4.191406-.601562 6.582032-31.128906 2.394532-32.027344-6.585938-.898437-27.835938 27.835938-33.824219 26.339844-9.277344-1.796875-17.65625-4.191406-25.140625-6.882812-13.167969-35.917969-18.257812-75.726563-15.863281-112.839844 31.128906 5.386718 70.339843 8.378906 107.453125 9.277344 8.679687 0-12.273438 30.230468-3.890625 30.230468 1.796875 0 19.15625-15.265625 29.929687-23.945312 4.492188-3.59375 7.78125-5.984375 8.679688-5.984375 17.960937-.300781 37.117187-.898438 55.96875-2.09375 5.6875-.300781-18.851563 29.328125-13.167969 28.734375 6.585937-.601563 43.398437-31.128906 49.984375-31.730469 11.074219-1.195313 22.148438-2.691406 32.027344-4.488281 2.390625 37.113281-2.695313 76.621094-15.863282 112.539062zm0 0" fill="#deecf1"/>
<path d="m373.039062 285.722656c-24.542968 8.679688-58.066406 13.769532-90.691406 15.863282-8.980468.597656 11.671875-29.03125 2.992188-29.03125-1.796875 0-19.15625 15.265624-29.929688 23.945312v-107.753906c4.488282-3.59375 7.78125-5.984375 8.679688-5.984375 17.957031-.300781 37.113281-.898438 55.96875-2.09375 5.6875-.300781-18.855469 29.328125-13.167969 28.734375 6.585937-.601563 43.398437-31.128906 49.984375-31.730469 11.074219-1.195313 22.148438-2.691406 32.027344-4.488281 2.390625 37.113281-2.695313 76.621094-15.863282 112.539062zm0 0" fill="#a8d3d8"/>
<path d="m264.089844 182.761719-8.679688 14.367187-61.058594 101.464844c-11.074218-1.496094-21.851562-3.292969-31.429687-5.6875l66.449219-110.445312c8.679687 0 17.65625.300781 26.039062.300781zm0 0" fill="#c6e2e7"/>
<path d="m356.875 177.671875-74.527344 123.914063c-8.980468.597656-18.257812.898437-26.9375.898437-2.695312 0-5.390625-.300781-8.382812-.300781l8.382812-14.066406 64.648438-107.449219c12.574218-.902344 24.84375-1.796875 36.816406-2.996094zm0 0" fill="#c6e2e7"/>
<path d="m264.089844 182.761719-8.679688 14.367187v-14.367187zm0 0" fill="#8ebac5"/>
<path d="m356.875 177.671875-74.527344 123.914063c-8.980468.597656-18.257812.898437-26.9375.898437v-14.367187l64.648438-107.449219c12.574218-.902344 24.84375-1.796875 36.816406-2.996094zm0 0" fill="#8ebac5"/>
<path d="m285.339844 392.277344v26.039062c-9.578125 2.394532-19.753906 3.890625-29.929688 3.890625-10.179687 0-20.355468-1.496093-29.929687-3.890625v-26.039062c0-16.460938 13.46875-29.929688 29.929687-29.929688 16.460938 0 29.929688 13.46875 29.929688 29.929688zm0 0" fill="#6e6e6e"/>
<path d="m285.339844 392.277344v26.039062c-9.578125 2.394532-19.753906 3.890625-29.929688 3.890625v-59.859375c16.460938 0 29.929688 13.46875 29.929688 29.929688zm0 0" fill="#444"/>
</svg>