<svg height="511pt" viewBox="0 -93 511.99964 511" width="511pt" xmlns="http://www.w3.org/2000/svg"><path d="m435.292969 41.597656c-57.300781-27.300781-118.09375-41.097656-179.292969-41.097656s-123.480469 13.796875-180.777344 41.101562c-47.894531 22.9375-75.597656 70.441407-75.21874975 121.699219.07031255 9.742188 1.16015575 19.625 3.31640575 29.496094l21.601563 96.601563c5.695313 24.898437 30.597656 40.5 56.097656 33.601562 57.300781-14.402344 116.179688-21.601562 174.980469-21.601562 59.097656 0 117.792969 7.199218 174.792969 21.601562 25.199219 7.199219 50.699219-8.402344 56.398437-33.601562l21.601563-96.601563c13.5-61.796875-16.5-123.898437-73.5-151.199219zm-284.292969 193.800782c0 7.5-5.398438 13.800781-12.597656 15-15 2.097656-29.179688 4.800781-43.582032 7.800781-8.398437 1.796875-16.199218-3.300781-18-11.402344l-14.699218-66.898437c-7.800782-34.5 9-69 40.800781-84 9.300781-4.5 18.078125-8.699219 27.679687-12.300782 10.199219-3.601562 20.398438 3.898438 20.398438 14.101563zm298.992188-55.5-15 67.199218c-1.5 7.800782-9.601563 12.902344-17.699219 11.402344-14.699219-3.300781-28.992188-6-43.695313-8.101562-7.199218-1.199219-12.597656-7.5-12.597656-15v-137.699219c0-10.5 10.5-17.703125 20.398438-14.101563 9.601562 3.601563 18.496093 7.800782 27.792968 12.300782 31.800782 15 48.601563 49.5 40.800782 84zm0 0" fill="#5a5a5a"/><path d="m435.292969 41.597656c-57.300781-27.300781-118.09375-41.097656-179.292969-41.097656v300.898438c59.097656 0 117.792969 7.199218 174.792969 21.601562 25.199219 7.199219 50.699219-8.402344 56.398437-33.601562l21.601563-96.601563c13.5-61.796875-16.5-123.898437-73.5-151.199219zm14.699219 138.300782-15 67.199218c-1.5 7.800782-9.601563 12.902344-17.699219 11.402344-14.699219-3.300781-28.992188-6-43.695313-8.101562-7.199218-1.199219-12.597656-7.5-12.597656-15v-137.699219c0-10.5 10.5-17.703125 20.398438-14.101563 9.601562 3.601563 18.496093 7.800782 27.792968 12.300782 31.800782 15 48.601563 49.5 40.800782 84zm0 0" fill="#444"/><path d="m316 62.296875h-120c-8.402344 0-15 6.601563-15 15v60c0 8.402344 6.597656 15 15 15h120c8.402344 0 15-6.597656 15-15v-60c0-8.398437-6.597656-15-15-15zm0 0" fill="#deecf1"/><path d="m331 227.296875c0 8.285156-6.714844 15-15 15s-15-6.714844-15-15c0-8.28125 6.714844-15 15-15s15 6.71875 15 15zm0 0" fill="#cc2e43"/><path d="m271 227.296875c0 8.402344-6.597656 15-15 15s-15-6.597656-15-15c0-8.398437 6.597656-15 15-15s15 6.601563 15 15zm0 0" fill="#e63950"/><path d="m211 227.296875c0 8.285156-6.714844 15-15 15s-15-6.714844-15-15c0-8.28125 6.714844-15 15-15s15 6.71875 15 15zm0 0" fill="#e63950"/><path d="m271 227.296875c0 8.402344-6.597656 15-15 15v-30c8.402344 0 15 6.601563 15 15zm0 0" fill="#cc2e43"/><path d="m331 77.296875v60c0 8.402344-6.597656 15-15 15h-60v-90h60c8.402344 0 15 6.601563 15 15zm0 0" fill="#c6e2e7"/></svg>