<svg height="512pt" viewBox="0 0 512 512" width="512pt" xmlns="http://www.w3.org/2000/svg"><path d="m364.101562 43.5-197.101562 138.800781-77.101562 53.699219c-2.398438 1.800781-5.398438 2.699219-8.398438 2.699219-4.800781 0-9.597656-2.097657-12.300781-6.300781-4.796875-6.898438-3-16.199219 3.601562-21l94.199219-65.398438 180-127.398438c6.898438-4.503906 16.199219-3.003906 21 3.898438 4.800781 6.898438 3 16.199219-3.898438 21zm0 0" fill="#5a5a5a"/><g fill="#444"><path d="m364.101562 43.5-197.101562 138.800781v-36.300781l180-127.398438c6.898438-4.503906 16.199219-3.003906 21 3.898438 4.800781 6.898438 3 16.199219-3.898438 21zm0 0"/><path d="m217.023438 503.460938c-6.179688 0-11.96875-3.839844-14.136719-10.007813-2.769531-7.804687 1.320312-16.375 9.140625-19.128906l239.988281-84.875c7.792969-2.738281 16.375 1.335937 19.128906 9.144531 2.769531 7.804688-1.316406 16.375-9.140625 19.128906l-239.984375 84.875c-1.640625.585938-3.339843.863282-4.996093.863282zm0 0"/><path d="m497 362c-8.289062 0-15-6.710938-15-15v-241c0-8.289062 6.710938-15 15-15s15 6.710938 15 15v241c0 8.289062-6.710938 15-15 15zm0 0"/></g><path d="m167 182c-33.898438 0-66.300781 10.199219-94.199219 29.398438-44.402343 30.902343-72.800781 81.601562-72.800781 135.601562 0 90.898438 76.097656 165 167 165 18.898438 0 37.5-3.300781 54.902344-9.300781 66-23.398438 110.097656-85.800781 110.097656-155.699219 0-90.902344-74.097656-165-165-165zm0 0" fill="#a8d3d8"/><path d="m332 347c0 69.898438-44.097656 132.300781-110.097656 155.699219-17.402344 6-36 9.300781-54.902344 9.300781v-330c90.902344 0 165 74.097656 165 165zm0 0" fill="#8ebac5"/><path d="m167 212c-74.699219 0-135 60.597656-135 135 0 74.398438 60.601562 135 135 135 75.300781 0 135-61.199219 135-135 0-74.402344-60.601562-135-135-135zm0 0" fill="#deecf1"/><path d="m302 347c0 73.800781-59.699219 135-135 135v-270c74.398438 0 135 60.597656 135 135zm0 0" fill="#c6e2e7"/><path d="m182 257c0 8.398438-6.597656 15-15 15s-15-6.601562-15-15c0-8.402344 6.597656-15 15-15s15 6.597656 15 15zm0 0" fill="#a8d3d8"/><path d="m182 437c0 8.398438-6.597656 15-15 15s-15-6.601562-15-15c0-8.402344 6.597656-15 15-15s15 6.597656 15 15zm0 0" fill="#a8d3d8"/><path d="m113.964844 272.753906c-5.859375-5.859375-15.355469-5.859375-21.214844 0-5.855469 5.855469-5.855469 15.355469 0 21.210938 5.859375 5.859375 15.355469 5.859375 21.214844 0 5.855468-5.855469 5.855468-15.355469 0-21.210938zm0 0" fill="#a8d3d8"/><path d="m241.242188 400.03125c-5.859376-5.855469-15.355469-5.855469-21.214844 0-5.855469 5.859375-5.855469 15.355469 0 21.214844 5.859375 5.855468 15.355468 5.855468 21.214844 0 5.859374-5.859375 5.859374-15.355469 0-21.214844zm0 0" fill="#8ebac5"/><path d="m92 347c0 8.285156-6.714844 15-15 15s-15-6.714844-15-15 6.714844-15 15-15 15 6.714844 15 15zm0 0" fill="#a8d3d8"/><path d="m272 347c0 8.285156-6.714844 15-15 15s-15-6.714844-15-15 6.714844-15 15-15 15 6.714844 15 15zm0 0" fill="#8ebac5"/><path d="m113.964844 400.03125c-5.859375-5.859375-15.355469-5.859375-21.214844 0-5.855469 5.859375-5.855469 15.355469 0 21.214844 5.859375 5.855468 15.355469 5.855468 21.214844 0 5.855468-5.859375 5.855468-15.355469 0-21.214844zm0 0" fill="#a8d3d8"/><path d="m241.242188 272.753906c-5.855469-5.859375-15.355469-5.859375-21.210938 0-5.859375 5.855469-5.859375 15.355469 0 21.210938 5.855469 5.859375 15.355469 5.859375 21.210938 0 5.859374-5.855469 5.859374-15.355469 0-21.210938zm0 0" fill="#8ebac5"/><path d="m167 302c-24.902344 0-45 20.097656-45 45 0 24.898438 20.097656 45 45 45s45-20.101562 45-45c0-24.902344-20.097656-45-45-45zm0 0" fill="#a8d3d8"/><path d="m182 437c0 8.398438-6.597656 15-15 15v-30c8.402344 0 15 6.597656 15 15zm0 0" fill="#8ebac5"/><path d="m167 272v-30c8.402344 0 15 6.597656 15 15 0 8.398438-6.597656 15-15 15zm0 0" fill="#8ebac5"/><path d="m212 347c0 24.898438-20.097656 45-45 45v-90c24.902344 0 45 20.097656 45 45zm0 0" fill="#8ebac5"/><path d="m167 332c-8.402344 0-15 6.597656-15 15 0 8.398438 6.597656 15 15 15s15-6.601562 15-15c0-8.402344-6.597656-15-15-15zm0 0" fill="#c6e2e7"/><path d="m182 347c0 8.398438-6.597656 15-15 15v-30c8.402344 0 15 6.597656 15 15zm0 0" fill="#a8d3d8"/><path d="m437 422c-41.351562 0-75-33.648438-75-75s33.648438-75 75-75 75 33.648438 75 75c0 31.714844-20.082031 60.144531-49.980469 70.722656-8.027343 2.839844-16.433593 4.277344-25.019531 4.277344zm0 0" fill="#8ebac5"/><path d="m437 302c-24.8125 0-45 20.1875-45 45s20.1875 45 45 45c5.171875 0 10.210938-.863281 15.015625-2.550781 17.929687-6.355469 29.984375-23.40625 29.984375-42.449219 0-24.8125-20.1875-45-45-45zm0 0" fill="#c6e2e7"/><path d="m452 347c0 8.285156-6.714844 15-15 15s-15-6.714844-15-15 6.714844-15 15-15 15 6.714844 15 15zm0 0" fill="#8ebac5"/><path d="m407 211c-57.890625 0-105-47.109375-105-105 0-34.363281 16.859375-67.621094 45.101562-87.265625 17.636719-12.257813 38.351563-18.734375 59.898438-18.734375 57.890625 0 105 48.109375 105 106s-47.109375 105-105 105zm0 0" fill="#8ebac5"/><path d="m407 30c-15.394531 0-30.175781 4.628906-42.773438 13.375-20.171874 14.03125-32.226562 38.074219-32.226562 62.625 0 41.351562 33.648438 75 75 75s75-33.648438 75-75-33.648438-76-75-76zm0 0" fill="#c6e2e7"/><path d="m407 151c-24.8125 0-45-20.1875-45-45s20.1875-45 45-45 45 20.1875 45 45-20.1875 45-45 45zm0 0" fill="#8ebac5"/><path d="m407 91c-8.277344 0-15 6.722656-15 15s6.722656 15 15 15 15-6.722656 15-15-6.722656-15-15-15zm0 0" fill="#a8d3d8"/></svg>