<svg height="512pt" viewBox="0 0 512 512" width="512pt" xmlns="http://www.w3.org/2000/svg"><path d="m273.769531 259.746094c-5.1875 0-10.226562-2.679688-13.007812-7.5-4.148438-7.179688-1.6875-16.347656 5.492187-20.492188l183.472656-105.925781c7.117188-4.15625 17.332032-1.710937 21.492188 5.496094 4.144531 7.175781.683594 16.347656-6.492188 20.492187l-183.472656 105.921875c-2.359375 1.363281-4.9375 2.007813-7.484375 2.007813zm0 0" fill="#8ebac5"/><path d="m86.796875 367.691406c-5.1875 0-10.226563-2.683594-13.007813-7.5-4.148437-7.179687-1.6875-16.347656 5.492188-20.496094l151.464844-87.433593c7.132812-4.132813 16.316406-1.6875 20.492187 5.492187 4.148438 7.175782 1.6875 16.347656-5.492187 20.492188l-151.464844 87.4375c-2.359375 1.363281-4.9375 2.007812-7.484375 2.007812zm0 0" fill="#a8d3d8"/><path d="m238.230469 259.746094c-2.546875 0-5.125-.644532-7.484375-2.007813l-173.964844-100.429687c-7.179688-4.144532-9.640625-13.3125-5.492188-20.492188 4.144532-7.175781 13.328126-9.636718 20.492188-5.492187l173.964844 100.429687c7.179687 4.144532 9.640625 13.316406 5.492187 20.492188-2.78125 4.804687-7.820312 7.5-13.007812 7.5zm0 0" fill="#a8d3d8"/><path d="m447.703125 380.683594c-2.546875 0-5.125-.644532-7.484375-2.007813l-173.964844-100.429687c-7.179687-4.144532-9.640625-13.3125-5.492187-20.492188 4.128906-7.179687 13.3125-9.625 20.492187-5.492187l173.964844 100.429687c7.179688 4.144532 9.640625 13.316406 5.492188 20.492188-2.78125 4.804687-7.820313 7.5-13.007813 7.5zm0 0" fill="#8ebac5"/><path d="m271 270v210c0 8.402344-6.597656 17-15 17s-15-8.597656-15-17v-210c0-8.402344 6.597656-15 15-15s15 6.597656 15 15zm0 0" fill="#a8d3d8"/><path d="m271 60v180c0 8.402344-6.597656 15-15 15s-15-6.597656-15-15v-180c0-8.402344 6.597656-15 15-15s15 6.597656 15 15zm0 0" fill="#a8d3d8"/><path d="m271 60v180c0 8.402344-6.597656 15-15 15v-210c8.402344 0 15 6.597656 15 15zm0 0" fill="#8ebac5"/><path d="m271 270v210c0 8.402344-6.597656 17-15 17v-242c8.402344 0 15 6.597656 15 15zm0 0" fill="#8ebac5"/><path d="m256 0c-140.699219 0-256 114.300781-256 255s115.300781 257 256 257 256-116.300781 256-257-115.300781-255-256-255zm0 420c-91.199219 0-165-73.800781-165-165s73.800781-165 165-165 165 73.800781 165 165-73.800781 165-165 165zm0 0" fill="#5a5a5a"/><path d="m512 255c0 140.699219-115.300781 257-256 257v-92c91.199219 0 165-73.800781 165-165s-73.800781-165-165-165v-90c140.699219 0 256 114.300781 256 255zm0 0" fill="#444"/><path d="m316 255c0 33-27 60-60 60s-60-27-60-60 27-60 60-60 60 27 60 60zm0 0" fill="#a8d3d8"/><path d="m256 315v-120c33 0 60 27 60 60s-27 60-60 60zm0 0" fill="#8ebac5"/><path d="m286 255c0 16.5-13.5 30-30 30s-30-13.5-30-30 13.5-30 30-30 30 13.5 30 30zm0 0" fill="#5a5a5a"/><path d="m286 255c0 16.5-13.5 30-30 30v-60c16.5 0 30 13.5 30 30zm0 0" fill="#444"/></svg>